# File created by Blade
# Date/Time:  Tue Sep 23 19:18:47 2014
# Frame Rate: 120.000 fps
#------------------------------------------------------
:FULLY-SPECIFIED
:DEGREES
2172
root -5.016055 32.241213 2.124996 37.625510 9.756354 -0.190546
Spine -39.482477 -3.494071 3.743181
Head 3.730356 56.631310 -0.906256
LeftShoulder -17.129634 37.828798 16.558631
LeftArm 75.615909 -12.289872 -70.357203
LeftForeArm -6.195628 -0.000000 57.361093
LeftHand -52.937004 -0.000000 21.860423
LeftHandThumb1 -26.253704 0.000000 33.147579
RightShoulder -17.460862 -46.008859 -20.290339
RightArm 47.410153 21.101963 71.144137
RightForeArm 28.583188 0.000000 6.329597
RightHand 20.735994 0.000000 -13.885389
RightHandThumb1 -24.326973 -0.000000 -32.862282
LeftUpLeg -35.451668 0.001129 11.585743
LeftLeg 3.778984 -0.000000 -0.000000
LeftFoot -5.636919 -12.843704 -1.933081
LeftToeBase -4.445108 -0.000000 0.000000
RightUpLeg -28.432040 -14.715765 5.360916
RightLeg -4.019044 -0.000000 0.000000
RightFoot -9.179844 -7.939599 15.726261
RightToeBase 12.192599 -0.000000 -0.000000
2173
root -4.999269 32.239282 2.119717 37.540789 9.491841 -0.167141
Spine -39.457835 -3.593782 3.709779
Head 4.130587 54.585916 -0.691854
LeftShoulder -17.144095 37.901157 16.480316
LeftArm 75.591579 -12.348960 -70.364908
LeftForeArm -6.139153 0.000000 57.634073
LeftHand -52.871027 -0.000000 21.885933
LeftHandThumb1 -26.253704 0.000000 33.147579
RightShoulder -17.305612 -45.932597 -20.424089
RightArm 47.590022 21.346014 71.719787
RightForeArm 27.980199 0.000000 7.073183
RightHand 20.780984 0.000000 -14.390264
RightHandThumb1 -24.326973 -0.000000 -32.862282
LeftUpLeg -35.379359 -0.113652 11.543445
LeftLeg 3.959371 -0.000000 -0.000000
LeftFoot -5.833173 -12.347680 -1.739020
LeftToeBase -4.268220 -0.000000 0.000000
RightUpLeg -28.333101 -14.638545 5.156377
RightLeg -4.061023 -0.000000 0.000000
RightFoot -9.118536 -7.674590 15.850411
RightToeBase 12.144113 -0.000000 -0.000000
2174
root -4.981504 32.238158 2.115191 37.483682 9.212291 -0.167552
Spine -39.467514 -3.670101 3.690969
Head 4.477569 52.431865 -0.553834
LeftShoulder -17.171749 37.994312 16.389732
LeftArm 75.561507 -12.436829 -70.316191
LeftForeArm -6.055435 -0.000000 57.926865
LeftHand -52.928752 -0.000000 21.703029
LeftHandThumb1 -26.253704 0.000000 33.147579
RightShoulder -17.157813 -45.895415 -20.540712
RightArm 47.771631 21.566666 72.272038
RightForeArm 27.480922 -0.000000 7.835982
RightHand 20.694519 0.000000 -14.945073
RightHandThumb1 -24.326973 -0.000000 -32.862282
LeftUpLeg -35.337868 -0.308758 11.582462
LeftLeg 4.135488 -0.000000 -0.000000
LeftFoot -5.993754 -11.830985 -1.596979
LeftToeBase -4.216996 -0.000000 0.000000
RightUpLeg -28.235804 -14.518858 4.964830
RightLeg -4.147306 -0.000000 0.000000
RightFoot -9.013341 -7.447707 15.962246
RightToeBase 12.043008 -0.000000 -0.000000
2175
root -4.961608 32.236656 2.111478 37.406160 8.908802 -0.154391
Spine -39.452426 -3.674880 3.559343
Head 4.810340 50.199230 -0.399334
LeftShoulder -17.057713 38.059138 16.420801
LeftArm 75.509473 -12.525614 -70.225518
LeftForeArm -5.993698 -0.000000 58.241613
LeftHand -52.876952 -0.000000 21.436243
LeftHandThumb1 -26.253704 0.000000 33.147579
RightShoulder -17.188884 -45.965789 -20.460088
RightArm 48.034820 21.777318 72.770995
RightForeArm 27.210417 -0.000000 8.522956
RightHand 20.607421 -0.000000 -15.413690
RightHandThumb1 -24.326973 -0.000000 -32.862282
LeftUpLeg -35.259864 -0.549441 11.640918
LeftLeg 4.306649 -0.000000 -0.000000
LeftFoot -6.165428 -11.397647 -1.620605
LeftToeBase -3.901573 -0.000000 0.000000
RightUpLeg -28.105984 -14.411377 4.752796
RightLeg -4.268953 -0.000000 0.000000
RightFoot -8.909608 -7.246715 15.931681
RightToeBase 12.063730 -0.000000 -0.000000
2176
root -4.937937 32.236158 2.106473 37.364921 8.543523 -0.123230
Spine -39.477461 -3.717026 3.431274
Head 5.116184 48.012386 -0.335857
LeftShoulder -16.969138 38.117854 16.466336
LeftArm 75.333810 -12.633672 -70.191409
LeftForeArm -5.909129 0.000000 58.654416
LeftHand -52.820199 -0.000000 21.187300
LeftHandThumb1 -26.253704 0.000000 33.147579
RightShoulder -17.016147 -45.982164 -20.513202
RightArm 48.179255 22.034246 73.308598
RightForeArm 26.749497 -0.000000 9.256145
RightHand 20.605121 0.000000 -15.841085
RightHandThumb1 -24.326973 -0.000000 -32.862282
LeftUpLeg -35.208924 -0.848127 11.711292
LeftLeg 4.470209 -0.000000 -0.000000
LeftFoot -6.296264 -10.921994 -1.704046
LeftToeBase -3.714023 -0.000000 0.000000
RightUpLeg -28.021291 -14.248403 4.484700
RightLeg -4.390638 -0.000000 0.000000
RightFoot -8.813378 -7.036947 16.085769
RightToeBase 12.072621 -0.000000 -0.000000
2177
root -4.912327 32.235252 2.102415 37.307159 8.119267 -0.106774
Spine -39.482771 -3.720628 3.279271
Head 5.422069 45.819883 -0.256160
LeftShoulder -16.892504 38.159946 16.516442
LeftArm 75.133436 -12.762090 -70.118389
LeftForeArm -5.739789 0.000000 59.044987
LeftHand -52.865239 -0.000000 20.682592
LeftHandThumb1 -26.253704 0.000000 33.147579
RightShoulder -16.967087 -45.890101 -20.504932
RightArm 48.326451 22.055733 73.604397
RightForeArm 26.588597 -0.000000 9.754362
RightHand 20.556236 -0.000000 -16.181451
RightHandThumb1 -24.326973 -0.000000 -32.862282
LeftUpLeg -35.126111 -1.146503 11.780690
LeftLeg 4.641194 -0.000000 -0.000000
LeftFoot -6.462587 -10.369130 -1.725191
LeftToeBase -3.432614 -0.000000 0.000000
RightUpLeg -27.960302 -14.067223 4.214348
RightLeg -4.455465 -0.000000 0.000000
RightFoot -8.724196 -6.826323 16.159972
RightToeBase 12.043064 -0.000000 -0.000000
2178
root -4.877538 32.236543 2.091049 37.326763 7.640756 -0.056783
Spine -39.527396 -3.685215 3.109361
Head 5.651506 43.574385 -0.291048
LeftShoulder -16.898620 38.275449 16.412344
LeftArm 75.016452 -12.980966 -69.860809
LeftForeArm -5.799371 -0.000000 59.460855
LeftHand -52.864703 0.000000 20.455153
LeftHandThumb1 -26.253704 0.000000 33.147579
RightShoulder -16.897412 -45.845684 -20.550200
RightArm 48.500891 22.178751 74.084387
RightForeArm 26.073728 -0.000000 10.329711
RightHand 20.435038 -0.000000 -16.559018
RightHandThumb1 -24.326973 -0.000000 -32.862282
LeftUpLeg -35.134638 -1.455385 11.808026
LeftLeg 4.842374 -0.000000 -0.000000
LeftFoot -6.597788 -9.858245 -1.802869
LeftToeBase -3.101061 -0.000000 0.000000
RightUpLeg -28.029073 -13.799961 3.851431
RightLeg -4.412716 -0.000000 0.000000
RightFoot -8.748026 -6.640329 16.349539
RightToeBase 12.162536 -0.000000 -0.000000
2179
root -4.842142 32.239123 2.084099 37.330513 7.147026 -0.007311
Spine -39.571645 -3.685088 2.939602
Head 5.885853 41.455784 -0.361722
LeftShoulder -16.912979 38.370463 16.362403
LeftArm 74.818914 -13.175136 -69.644840
LeftForeArm -5.835307 0.000000 59.931504
LeftHand -52.908399 -0.000000 20.109569
LeftHandThumb1 -26.253704 0.000000 33.147579
RightShoulder -16.826275 -45.875108 -20.549494
RightArm 48.753424 22.230359 74.487904
RightForeArm 25.778683 -0.000000 10.810391
RightHand 20.393699 -0.000000 -16.953728
RightHandThumb1 -24.326973 -0.000000 -32.862282
LeftUpLeg -35.128740 -1.826086 11.858941
LeftLeg 5.053948 -0.000000 -0.000000
LeftFoot -6.731556 -9.188366 -1.796764
LeftToeBase -3.037331 -0.000000 0.000000
RightUpLeg -28.087949 -13.587953 3.518570
RightLeg -4.390571 -0.000000 0.000000
RightFoot -8.649478 -6.450180 16.349157
RightToeBase 12.094978 -0.000000 -0.000000
2180
root -4.803515 32.243525 2.076824 37.305551 6.590849 0.049742
Spine -39.583480 -3.655096 2.720942
Head 6.122282 39.313392 -0.451500
LeftShoulder -16.921342 38.460199 16.307268
LeftArm 74.648906 -13.366910 -69.470231
LeftForeArm -5.777594 -0.000000 60.348226
LeftHand -52.971300 0.000000 19.826474
LeftHandThumb1 -26.253704 0.000000 33.147579
RightShoulder -16.692790 -45.864778 -20.580052
RightArm 48.969652 22.396616 75.023247
RightForeArm 25.283844 0.000000 11.267816
RightHand 20.265408 -0.000000 -17.264977
RightHandThumb1 -24.326973 -0.000000 -32.862282
LeftUpLeg -35.101521 -2.093560 11.842314
LeftLeg 5.303144 -0.000000 -0.000000
LeftFoot -6.834031 -8.734172 -1.943539
LeftToeBase -2.991788 -0.000000 0.000000
RightUpLeg -28.110488 -13.314746 3.106745
RightLeg -4.380511 -0.000000 0.000000
RightFoot -8.561395 -6.250576 16.513755
RightToeBase 12.030861 -0.000000 -0.000000
2181
root -4.758237 32.248822 2.070404 37.247736 6.007873 0.129342
Spine -39.557480 -3.621908 2.472988
Head 6.364326 37.264382 -0.564573
LeftShoulder -16.931575 38.571188 16.257345
LeftArm 74.429744 -13.573871 -69.142236
LeftForeArm -5.947920 -0.000000 60.808242
LeftHand -52.934132 0.000000 19.813336
LeftHandThumb1 -26.253704 0.000000 33.147579
RightShoulder -16.569256 -45.844862 -20.611422
RightArm 49.128564 22.409186 75.377101
RightForeArm 24.932749 0.000000 11.581816
RightHand 20.368783 -0.000000 -17.503146
RightHandThumb1 -24.326973 -0.000000 -32.862282
LeftUpLeg -35.052991 -2.388696 11.787586
LeftLeg 5.570614 -0.000000 -0.000000
LeftFoot -6.898994 -8.243594 -1.972387
LeftToeBase -3.197448 -0.000000 0.000000
RightUpLeg -28.173484 -13.165257 2.727686
RightLeg -4.248586 -0.000000 0.000000
RightFoot -8.471070 -5.897006 16.777539
RightToeBase 11.789042 -0.000000 -0.000000
2182
root -4.708592 32.255249 2.065436 37.171939 5.392871 0.213792
Spine -39.511268 -3.575566 2.199681
Head 6.586932 35.252238 -0.680384
LeftShoulder -16.944760 38.649045 16.224242
LeftArm 74.213208 -13.749312 -68.912870
LeftForeArm -6.044290 -0.000000 61.248365
LeftHand -52.940416 -0.000000 19.659234
LeftHandThumb1 -26.253704 0.000000 33.147579
RightShoulder -16.435480 -45.831507 -20.658206
RightArm 49.234506 22.355657 75.668364
RightForeArm 24.675050 -0.000000 11.897845
RightHand 20.331208 -0.000000 -17.729973
RightHandThumb1 -24.326973 -0.000000 -32.862282
LeftUpLeg -35.005132 -2.688329 11.714669
LeftLeg 5.872977 -0.000000 -0.000000
LeftFoot -6.964487 -7.769295 -2.043987
LeftToeBase -3.430640 -0.000000 0.000000
RightUpLeg -28.229710 -13.039141 2.338838
RightLeg -4.131476 -0.000000 0.000000
RightFoot -8.387700 -5.567417 16.811158
RightToeBase 11.723718 -0.000000 -0.000000
2183
root -4.655093 32.262010 2.053546 37.179754 4.713454 0.339666
Spine -39.539876 -3.463757 1.823613
Head 6.868718 33.206937 -0.737291
LeftShoulder -16.834377 38.614816 16.326526
LeftArm 73.883092 -13.893454 -68.698438
LeftForeArm -6.073937 0.000000 61.695222
LeftHand -53.080072 -0.000000 19.495367
LeftHandThumb1 -26.253704 0.000000 33.147579
RightShoulder -16.362932 -45.834511 -20.696385
RightArm 49.334315 22.199564 75.884597
RightForeArm 24.443516 -0.000000 12.025651
RightHand 20.455452 -0.000000 -17.946099
RightHandThumb1 -24.326973 -0.000000 -32.862282
LeftUpLeg -35.037732 -3.075644 11.648964
LeftLeg 6.148307 -0.000000 -0.000000
LeftFoot -7.005448 -7.165450 -2.079587
LeftToeBase -3.669077 -0.000000 0.000000
RightUpLeg -28.159473 -12.446642 1.621153
RightLeg -4.340633 -0.000000 0.000000
RightFoot -8.251615 -5.645238 17.094825
RightToeBase 12.005116 -0.000000 -0.000000
